<svg xmlns="http://www.w3.org/2000/svg" xmlns:xlink="http://www.w3.org/1999/xlink" viewBox="0 0 350 330">
  
  <!-- Дирижабль -->
  <g id='airship'>

    <!-- Кабина -->
    <g id='airshipCabine'>
     
        <animateTransform attributeName="transform"
                          type="scale"
                          values="1 1.05;1 .99;1 1.05"
                          keyTimes="0; 0.5; 1"
                          dur="2s"
                          additive="sum"
                          repeatCount="indefinite"/>
        <animateTransform attributeName="transform"
                          type="perspective"
                          values="1px;300px;1px"
                          keyTimes="0; 0.5; 1"
                          dur="2s"
                          additive="sum"
                          repeatCount="indefinite"/>
      <path d="M175.44,249.28h48.36a13.27,13.27,0,0,0,13-10.65l3.74-18.32H172.36v25.89A3.09,3.09,0,0,0,175.44,249.28Z" fill="none" stroke="#fff" stroke-linecap="round" stroke-linejoin="round" stroke-width="2"/>
      <path d="M235.79,241.69h-9.22a8.31,8.31,0,0,1-8.28-8.31V220.31" fill="none" stroke="#fff" stroke-linecap="round" stroke-miterlimit="10" stroke-width="2"/>
      <path d="M204.25,231.88h-2.05a3.45,3.45,0,0,0-3.43,3.45v2.92a3.45,3.45,0,0,0,3.43,3.45h2.05a3.45,3.45,0,0,0,3.43-3.45v-2.92A3.44,3.44,0,0,0,204.25,231.88Z" fill="none" stroke="#fff" stroke-linecap="round" stroke-linejoin="round" stroke-width="2"/>
      <path d="M185.64,231.88h-2.05a3.45,3.45,0,0,0-3.43,3.45v2.92a3.45,3.45,0,0,0,3.43,3.45h2.05a3.45,3.45,0,0,0,3.43-3.45v-2.92A3.45,3.45,0,0,0,185.64,231.88Z" fill="none" stroke="#fff" stroke-linecap="round" stroke-linejoin="round" stroke-width="2"/>    
    </g>

    <!-- Тело -->
    <g id='body'>
      <path d="M205,227.08c43.38,0,74.86-15.55,74.86-37s-31.48-37-74.86-37c-27.94,0-55.36,13.53-73.46,24.87a14.3,14.3,0,0,0,0,24.21c18.09,11.33,45.52,24.87,73.46,24.87" fill="#068e4d"/>
      <path d="M205,227.08c43.38,0,74.86-15.55,74.86-37s-31.48-37-74.86-37c-27.94,0-55.36,13.53-73.46,24.87a14.3,14.3,0,0,0,0,24.21C149.63,213.54,177.06,227.08,205,227.08Z" fill="none" stroke="#fff" stroke-width="2"/>
      
      <g>

        <path d=" M 202.85 183.2 C 181.01 183.112 163.276 183.695 149.65 184.95 C 136.052 186.213 128.719 187.229 127.65 188 C 126.65 188.767 126.133 189.583 126.1 190.45 C 126 188.117 126.5 185.95 127.6 183.95 C 128.6 181.983 130.117 180.333 132.15 179 C 142.883 172.267 153.583 166.85 164.25 162.75 C 178.75 157.15 192.317 154.35 204.95 154.35 C 204.95 154.35 204.95 154.35 204.95 154.35 C 227.395 154.32 245.805 158.32 258.614 164.789 C 271.423 171.257 278.63 180.195 278.63 190.07 C 278.63 190.19 278.63 190.31 278.63 190.44 C 278.445 186.465 271.17 182.873 258.375 180.274 C 245.58 177.675 227.265 176.07 205 176.07" fill="#36e69a">
          <animate
            attributeName="d" 
            values=" M 202.85 183.2 C 181.01 183.112 163.276 183.695 149.65 184.95 C 136.052 186.213 128.719 187.229 127.65 188 C 126.65 188.767 126.133 189.583 126.1 190.45 C 126 188.117 126.5 185.95 127.6 183.95 C 128.6 181.983 130.117 180.333 132.15 179 C 142.883 172.267 153.583 166.85 164.25 162.75 C 178.75 157.15 192.317 154.35 204.95 154.35 C 204.95 154.35 204.95 154.35 204.95 154.35 C 227.395 154.32 245.805 158.32 258.614 164.789 C 271.423 171.257 278.63 180.195 278.63 190.07 C 278.63 190.19 278.63 190.31 278.63 190.44 C 278.445 186.465 271.17 182.873 258.375 180.274 C 245.58 177.675 227.265 176.07 205 176.07;
                     M 202.85 183.2 C 181.01 183.112 163.276 183.695 149.65 184.95 C 136.052 186.213 128.719 187.229 127.65 188 C 126.65 188.767 126.133 189.583 126.1 190.45 C 126 188.117 126.5 185.95 127.6 183.95 C 128.6 181.983 130.117 180.333 132.15 179 C 142.883 172.267 153.583 166.85 164.25 162.75 C 178.75 157.15 192.317 154.35 204.95 154.35 C 204.95 154.35 204.95 154.35 204.95 154.35 C 226.883 154.35 244.767 157.833 258.6 164.8 C 271.933 171.567 278.6 180 278.6 190.1 C 278.6 190.217 278.6 190.333 278.6 190.45 C 278.431 186.387 271.214 184.187 256.95 183.85 C 242.724 183.505 224.69 183.288 202.85 183.2;
                     M 202.85 183.2 C 181.01 183.112 163.276 183.695 149.65 184.95 C 136.052 186.213 128.719 187.229 127.65 188 C 126.65 188.767 126.133 189.583 126.1 190.45 C 126 188.117 126.5 185.95 127.6 183.95 C 128.6 181.983 130.117 180.333 132.15 179 C 142.883 172.267 153.583 166.85 164.25 162.75 C 178.75 157.15 192.317 154.35 204.95 154.35 C 204.95 154.35 204.95 154.35 204.95 154.35 C 227.395 154.32 245.805 158.32 258.614 164.789 C 271.423 171.257 278.63 180.195 278.63 190.07 C 278.63 190.19 278.63 190.31 278.63 190.44 C 278.445 186.465 271.17 182.873 258.375 180.274 C 245.58 177.675 227.265 176.07 205 176.07"
            repeatCount="indefinite"
            fill="freeze"
            dur="2s"/>
        </path >
      </g>
      <g>
        <path id="#body-top" d="M 132.18 186.12 C 136.365 185.053 141.244 183.894 146.649 182.756 C 152.054 181.618 157.986 180.502 164.276 179.519 C 170.567 178.536 177.217 177.686 184.058 177.082 C 190.899 176.478 197.933 176.12 204.99 176.12 C 227.255 176.12 245.57 177.727 258.363 180.329 C 271.155 182.93 278.425 186.525 278.6 190.5 C 278.6 190.67 278.6 190.84 278.6 191.01 C 278.175 194.94 270.813 198.482 258.038 201.042 C 245.262 203.602 227.075 205.18 205 205.18 C 176.77 205.18 148.93 199.42 132.19 195.18 C 128.4 194.18 126.4 192.65 126.19 191.05 L 126.19 190.54 C 126.255 189.695 126.793 188.855 127.808 188.1 C 128.822 187.345 130.315 186.675 132.29 186.17" fill="#25b774">
        <animate
            attributeName="d"
            dur="2s"
            repeatCount="indefinite"
            calcMode="linear"
            values="M 132.18 186.12 C 136.365 185.053 141.244 183.894 146.649 182.756 C 152.054 181.618 157.986 180.502 164.276 179.519 C 170.567 178.536 177.217 177.686 184.058 177.082 C 190.899 176.478 197.933 176.12 204.99 176.12 C 227.255 176.12 245.57 177.727 258.363 180.329 C 271.155 182.93 278.425 186.525 278.6 190.5 C 278.6 190.67 278.6 190.84 278.6 191.01 C 278.175 194.94 270.813 198.482 258.038 201.042 C 245.262 203.602 227.075 205.18 205 205.18 C 176.77 205.18 148.93 199.42 132.19 195.18 C 128.4 194.18 126.4 192.65 126.19 191.05 L 126.19 190.54 C 126.255 189.695 126.793 188.855 127.808 188.1 C 128.822 187.345 130.315 186.675 132.29 186.17;
                    M 132.25 186.2 C 132.217 186.183 132.183 186.167 132.15 186.15 C 141.114 184.941 151.931 184.058 164.6 183.5 C 177.264 182.941 192.514 182.758 210.35 182.95 C 210.35 182.95 210.35 182.95 210.35 182.95 C 228.22 183.145 244.037 183.379 257.8 183.65 C 271.598 183.95 278.531 186.234 278.6 190.5 C 278.6 190.683 278.6 190.867 278.6 191.05 C 278.165 195.082 271.998 199.516 260.1 204.35 C 248.239 209.179 230.889 211.329 208.05 210.8 C 185.21 210.271 165.927 207.288 150.2 201.85 C 134.468 196.451 126.452 192.867 126.15 191.1 L 126.15 190.55 C 126.132 189.514 126.649 188.631 127.7 187.9 C 128.784 187.169 130.301 186.602 132.25 186.2;
                    M 132.18 186.12 C 136.365 185.053 141.244 183.894 146.649 182.756 C 152.054 181.618 157.986 180.502 164.276 179.519 C 170.567 178.536 177.217 177.686 184.058 177.082 C 190.899 176.478 197.933 176.12 204.99 176.12 C 227.255 176.12 245.57 177.727 258.363 180.329 C 271.155 182.93 278.425 186.525 278.6 190.5 C 278.6 190.67 278.6 190.84 278.6 191.01 C 278.175 194.94 270.813 198.482 258.038 201.042 C 245.262 203.602 227.075 205.18 205 205.18 C 176.77 205.18 148.93 199.42 132.19 195.18 C 128.4 194.18 126.4 192.65 126.19 191.05 L 126.19 190.54 C 126.255 189.695 126.793 188.855 127.808 188.1 C 128.822 187.345 130.315 186.675 132.29 186.17"
         />
        </path >
      </g>
      
    </g>
    
    <!-- Хвост -->
    <g id='tail'>
      <g id='tail-item-1'>
       <animateTransform attributeName="transform"
                        type="translate"
                        values="0 2; 0 -2; 0 2"
                        dur="2s"
                        repeatCount="indefinite"/>
          <path d="M123.23,173.34h9.16a3.29,3.29,0,0,1,3.29,3.3v5.71a3.29,3.29,0,0,1-3.29,3.3H115.57a1.32,1.32,0,0,1-1.32-1.32v-2a9,9,0,0,1,9-9" fill="#068e4d"/>
          <path d="M123.23,173.34h9.16a3.29,3.29,0,0,1,3.29,3.3v5.71a3.29,3.29,0,0,1-3.29,3.3H115.57a1.32,1.32,0,0,1-1.32-1.32v-2A9,9,0,0,1,123.23,173.34Z" fill="none" stroke="#fff" stroke-linecap="round" stroke-linejoin="round" stroke-width="2"/>
      </g>
      <g id='tail-item-2'>
       <animateTransform attributeName="transform"
                        type="translate"
                        values="0 2; 0 -2; 0 2"
                        dur="2s"
                        repeatCount="indefinite"/>
         <path d="M123.23,207.39h9.16a3.29,3.29,0,0,0,3.29-3.3v-5.71a3.29,3.29,0,0,0-3.29-3.3H115.57a1.32,1.32,0,0,0-1.32,1.32v2a9,9,0,0,0,9,9" fill="#068e4d"/>
          <path d="M123.23,207.39h9.16a3.29,3.29,0,0,0,3.29-3.3v-5.71a3.29,3.29,0,0,0-3.29-3.3H115.57a1.32,1.32,0,0,0-1.32,1.32v2A9,9,0,0,0,123.23,207.39Z" fill="none" stroke="#fff" stroke-linecap="round" stroke-linejoin="round" stroke-width="2"/><path d="M123.23,173.34h9.16a3.29,3.29,0,0,1,3.29,3.3v5.71a3.29,3.29,0,0,1-3.29,3.3H115.57a1.32,1.32,0,0,1-1.32-1.32v-2A9,9,0,0,1,123.23,173.34Z" fill="none" stroke="#fff" stroke-linecap="round" stroke-linejoin="round" stroke-width="2"/>
      </g>
      <g id='tail-item-3'>
      <animateTransform attributeName="transform"
                        type="translate"
                        values="0 -2; 0 2; 0 -2"
                        dur="2s"
                        repeatCount="indefinite"/>
        <path d="M123.23,173.34h9.16a3.29,3.29,0,0,1,3.29,3.3v5.71a3.29,3.29,0,0,1-3.29,3.3H115.57a1.32,1.32,0,0,1-1.32-1.32v-2a9,9,0,0,1,9-9" fill="#068e4d"/>
        <path d="M123.23,173.34h9.16a3.29,3.29,0,0,1,3.29,3.3v5.71a3.29,3.29,0,0,1-3.29,3.3H115.57a1.32,1.32,0,0,1-1.32-1.32v-2A9,9,0,0,1,123.23,173.34Z" fill="none" stroke="#fff" stroke-linecap="round" stroke-linejoin="round" stroke-width="2"/>
      </g>
      <g id='tail-item-4'>
       <animateTransform attributeName="transform"
                        type="translate"
                        values="0 -2; 0 2; 0 -2"
                        dur="2s"
                        repeatCount="indefinite"/>
        <path d="M123.23,207.39h9.16a3.29,3.29,0,0,0,3.29-3.3v-5.71a3.29,3.29,0,0,0-3.29-3.3H115.57a1.32,1.32,0,0,0-1.32,1.32v2a9,9,0,0,0,9,9" fill="#068e4d"/>
        <path d="M123.23,207.39h9.16a3.29,3.29,0,0,0,3.29-3.3v-5.71a3.29,3.29,0,0,0-3.29-3.3H115.57a1.32,1.32,0,0,0-1.32,1.32v2A9,9,0,0,0,123.23,207.39Z" fill="none" stroke="#fff" stroke-linecap="round" stroke-linejoin="round" stroke-width="2"/>
      </g>
    </g>
   
  </g>
  
  <!-- Облако слева -->
  <g id='left-cloud'>
    <line x1="68.95" y1="107.8" x2="131.86" y2="107.8" fill="none" stroke="#fff" stroke-linecap="round" stroke-miterlimit="10" stroke-width="2"/>
    <g>
      <path d="M41.77,97.54H77.06a12.4,12.4,0,1,1,24.8,0h17.93" fill="none" stroke="#fff" stroke-linecap="round" stroke-miterlimit="10" stroke-width="2"/>
    </g>
  </g>
  
  <!-- Облако справа -->
  <g id='right-cloud'>
    <line x1="258.96" y1="93.19" x2="298.74" y2="93.19" fill="none" stroke="#fff" stroke-linecap="round" stroke-miterlimit="10" stroke-width="2"/>
    <g>
      <path d="M278.75,82.91H251.39a12.4,12.4,0,1,0-24.8,0H208.65" fill="none" stroke="#fff" stroke-linecap="round" stroke-miterlimit="10" stroke-width="2"/>
      <line x1="287.01" y1="82.91" x2="309.21" y2="82.91" fill="none" stroke="#fff" stroke-linecap="round" stroke-miterlimit="10" stroke-width="2"/>
    </g>
  </g>

 
  
  <!-- Дым дирижабля -->
  <g id='steam'>
    <line x1="106.25" y1="179.49" x2="84.05" y2="179.49" fill="none" stroke="#fff" stroke-linecap="round" stroke-miterlimit="10" stroke-width="2"/>
    <line x1="106.25" y1="201.23" x2="84.05" y2="201.23" fill="none" stroke="#fff" stroke-linecap="round" stroke-miterlimit="10" stroke-width="2"/>
    <line x1="106.25" y1="190.98" x2="68.77" y2="190.98" fill="none" stroke="#fff" stroke-linecap="round" stroke-miterlimit="10" stroke-width="2"/>
  </g>
  
  <!-- Горы -->
  <g id='mount'>
    <g>
      <path d="M289.94,327.88H244.88L212.8,296.58a1.89,1.89,0,0,0-2.44,0l-10.2,10.23a1.72,1.72,0,0,1-2.25,0l-19-20.17a2.4,2.4,0,0,0-3.1,0l-26.42,25.64a1.71,1.71,0,0,1-2.25,0l-2.63-2.92a1.71,1.71,0,0,0-2.31,0L124.63,329H80.78" fill="none" stroke="#fff" stroke-linecap="round" stroke-miterlimit="10" stroke-width="2"/>
      <path d="M289.94,328H200.15c-0.86,0-1.56,0-2.25,0h-19c-1.5,0-2.23,0-3.1,0h-32.3c-1.09,0-1.66,0-2.31,0H80.78" fill="none" stroke="#fff" stroke-linecap="round" stroke-miterlimit="10" stroke-width="2"/>
    </g>
  </g>

  <animate xlink:href="#airship" transform="200px" />
</svg>
